TITLE ""
FILE "P1Q_t_0729-0738.mp3" MP3
  TRACK 01 AUDIO
    TITLE "P1Q_t_0729-0738_01"
    INDEX 01 00:00:00
  TRACK 02 AUDIO
    TITLE "P1Q_t_0729-0738_02"
    INDEX 01 00:00:10
  TRACK 03 AUDIO
    TITLE "P1Q_t_0729-0738_03"
    INDEX 01 00:01:18
  TRACK 04 AUDIO
    TITLE "P1Q_t_0729-0738_04"
    INDEX 01 00:01:65
  TRACK 05 AUDIO
    TITLE "P1Q_t_0729-0738_05"
    INDEX 01 00:03:07
  TRACK 06 AUDIO
    TITLE "P1Q_t_0729-0738_06"
    INDEX 01 00:03:30
  TRACK 07 AUDIO
    TITLE "P1Q_t_0729-0738_07"
    INDEX 01 00:06:42
  TRACK 08 AUDIO
    TITLE "P1Q_t_0729-0738_08"
    INDEX 01 00:06:62
  TRACK 09 AUDIO
    TITLE "P1Q_t_0729-0738_09"
    INDEX 01 00:11:34
  TRACK 10 AUDIO
    TITLE "P1Q_t_0729-0738_10"
    INDEX 01 00:12:08
  TRACK 11 AUDIO
    TITLE "P1Q_t_0729-0738_11"
    INDEX 01 00:13:44
  TRACK 12 AUDIO
    TITLE "P1Q_t_0729-0738_12"
    INDEX 01 00:13:66
  TRACK 13 AUDIO
    TITLE "P1Q_t_0729-0738_13"
    INDEX 01 00:17:24
  TRACK 14 AUDIO
    TITLE "P1Q_t_0729-0738_14"
    INDEX 01 00:17:44
  TRACK 15 AUDIO
    TITLE "P1Q_t_0729-0738_15"
    INDEX 01 00:23:29
  TRACK 16 AUDIO
    TITLE "P1Q_t_0729-0738_16"
    INDEX 01 00:24:03
  TRACK 17 AUDIO
    TITLE "P1Q_t_0729-0738_17"
    INDEX 01 00:25:22
  TRACK 18 AUDIO
    TITLE "P1Q_t_0729-0738_18"
    INDEX 01 00:25:42
  TRACK 19 AUDIO
    TITLE "P1Q_t_0729-0738_19"
    INDEX 01 00:27:58
  TRACK 20 AUDIO
    TITLE "P1Q_t_0729-0738_20"
    INDEX 01 00:28:03
  TRACK 21 AUDIO
    TITLE "P1Q_t_0729-0738_21"
    INDEX 01 00:32:20
  TRACK 22 AUDIO
    TITLE "P1Q_t_0729-0738_22"
    INDEX 01 00:32:65
  TRACK 23 AUDIO
    TITLE "P1Q_t_0729-0738_23"
    INDEX 01 00:34:03
  TRACK 24 AUDIO
    TITLE "P1Q_t_0729-0738_24"
    INDEX 01 00:34:27
  TRACK 25 AUDIO
    TITLE "P1Q_t_0729-0738_25"
    INDEX 01 00:37:45
  TRACK 26 AUDIO
    TITLE "P1Q_t_0729-0738_26"
    INDEX 01 00:37:64
  TRACK 27 AUDIO
    TITLE "P1Q_t_0729-0738_27"
    INDEX 01 00:41:45
  TRACK 28 AUDIO
    TITLE "P1Q_t_0729-0738_28"
    INDEX 01 00:42:24
  TRACK 29 AUDIO
    TITLE "P1Q_t_0729-0738_29"
    INDEX 01 00:43:32
  TRACK 30 AUDIO
    TITLE "P1Q_t_0729-0738_30"
    INDEX 01 00:43:53
  TRACK 31 AUDIO
    TITLE "P1Q_t_0729-0738_31"
    INDEX 01 00:47:22
  TRACK 32 AUDIO
    TITLE "P1Q_t_0729-0738_32"
    INDEX 01 00:47:41
  TRACK 33 AUDIO
    TITLE "P1Q_t_0729-0738_33"
    INDEX 01 00:51:39
  TRACK 34 AUDIO
    TITLE "P1Q_t_0729-0738_34"
    INDEX 01 00:52:11
  TRACK 35 AUDIO
    TITLE "P1Q_t_0729-0738_35"
    INDEX 01 00:53:34
  TRACK 36 AUDIO
    TITLE "P1Q_t_0729-0738_36"
    INDEX 01 00:53:57
  TRACK 37 AUDIO
    TITLE "P1Q_t_0729-0738_37"
    INDEX 01 00:56:40
  TRACK 38 AUDIO
    TITLE "P1Q_t_0729-0738_38"
    INDEX 01 00:56:62
  TRACK 39 AUDIO
    TITLE "P1Q_t_0729-0738_39"
    INDEX 01 01:01:57
  TRACK 40 AUDIO
    TITLE "P1Q_t_0729-0738_40"
    INDEX 01 01:02:29
  TRACK 41 AUDIO
    TITLE "P1Q_t_0729-0738_41"
    INDEX 01 01:03:34
  TRACK 42 AUDIO
    TITLE "P1Q_t_0729-0738_42"
    INDEX 01 01:03:56
  TRACK 43 AUDIO
    TITLE "P1Q_t_0729-0738_43"
    INDEX 01 01:05:63
  TRACK 44 AUDIO
    TITLE "P1Q_t_0729-0738_44"
    INDEX 01 01:06:07
  TRACK 45 AUDIO
    TITLE "P1Q_t_0729-0738_45"
    INDEX 01 01:09:41
  TRACK 46 AUDIO
    TITLE "P1Q_t_0729-0738_46"
    INDEX 01 01:10:13
  TRACK 47 AUDIO
    TITLE "P1Q_t_0729-0738_47"
    INDEX 01 01:11:44
  TRACK 48 AUDIO
    TITLE "P1Q_t_0729-0738_48"
    INDEX 01 01:11:65
  TRACK 49 AUDIO
    TITLE "P1Q_t_0729-0738_49"
    INDEX 01 01:15:55
  TRACK 50 AUDIO
    TITLE "P1Q_t_0729-0738_50"
    INDEX 01 01:15:75
  TRACK 51 AUDIO
    TITLE "P1Q_t_0729-0738_51"
    INDEX 01 01:19:45
  TRACK 52 AUDIO
    TITLE "P1Q_t_0729-0738_52"
    INDEX 01 01:20:17
  TRACK 53 AUDIO
    TITLE "P1Q_t_0729-0738_53"
    INDEX 01 01:21:42
  TRACK 54 AUDIO
    TITLE "P1Q_t_0729-0738_54"
    INDEX 01 01:21:64
  TRACK 55 AUDIO
    TITLE "P1Q_t_0729-0738_55"
    INDEX 01 01:24:19
  TRACK 56 AUDIO
    TITLE "P1Q_t_0729-0738_56"
    INDEX 01 01:24:38
  TRACK 57 AUDIO
    TITLE "P1Q_t_0729-0738_57"
    INDEX 01 01:29:14
  TRACK 58 AUDIO
    TITLE "P1Q_t_0729-0738_58"
    INDEX 01 01:29:61
  TRACK 59 AUDIO
    TITLE "P1Q_t_0729-0738_59"
    INDEX 01 01:30:57
  TRACK 60 AUDIO
    TITLE "P1Q_t_0729-0738_60"
    INDEX 01 01:31:07
  TRACK 61 AUDIO
    TITLE "P1Q_t_0729-0738_61"
    INDEX 01 01:33:39
  TRACK 62 AUDIO
    TITLE "P1Q_t_0729-0738_62"
    INDEX 01 01:33:61
  TRACK 63 AUDIO
    TITLE "P1Q_t_0729-0738_63"
    INDEX 01 01:37:39
